<svg width="24.000000" height="24.000000" viewBox="0 0 24 24" fill="none" xmlns="http://www.w3.org/2000/svg" xmlns:xlink="http://www.w3.org/1999/xlink">
	<desc>
			Created with Pixso.
	</desc>
	<defs>
		<clipPath id="clip1_539">
			<rect id="star" rx="0.000000" width="23.000000" height="23.000000" transform="translate(0.500000 0.500000)" fill="white" fill-opacity="0"/>
		</clipPath>
	</defs>
	<rect id="star" rx="0.000000" width="23.000000" height="23.000000" transform="translate(0.500000 0.500000)" fill="#FFFFFF" fill-opacity="0"/>
	<g clip-path="url(#clip1_539)">
		<path id="Vector" d="M12.89 3.81L14.85 7.78C15 8.08 15.28 8.28 15.6 8.33L19.99 8.97C20.81 9.09 21.14 10.1 20.54 10.68L17.37 13.77C17.14 14 17.03 14.33 17.08 14.65L17.83 19.02C17.97 19.83 17.12 20.46 16.38 20.07L12.46 18.01C12.17 17.86 11.82 17.86 11.53 18.01L7.61 20.07C6.87 20.46 6.02 19.83 6.16 19.02L6.91 14.65C6.96 14.33 6.85 14 6.62 13.77L3.45 10.68C2.85 10.1 3.18 9.09 4 8.97L8.39 8.33C8.71 8.28 8.99 8.08 9.14 7.78L11.1 3.81C11.47 3.07 12.52 3.07 12.89 3.81Z" fill="#F8BD38" fill-opacity="1.000000" fill-rule="nonzero"/>
	</g>
</svg>
